<svg width="205" height="47" viewBox="0 0 205 47" fill="none" xmlns="http://www.w3.org/2000/svg">
<path d="M13.88 2.13989H17.75L31.23 33.6499H26.25L23.09 25.8599H8.1L4.98 33.6499H0L13.88 2.13989ZM21.53 22.1199L15.66 7.64989H15.57L9.61 22.1099H21.54L21.53 22.1199Z" fill="#2B2B2B"/>
<path d="M50.15 0H54.15V21.72L63.23 12.6H68.79L58.96 22.17L69.64 33.65H63.94L54.15 22.7V33.65H50.15V0Z" fill="#2B2B2B"/>
<path d="M75.9599 24.56C75.9599 25.48 76.1599 26.32 76.5599 27.07C76.9599 27.82 77.4899 28.47 78.1399 29.01C78.7899 29.54 79.5499 29.96 80.4099 30.26C81.2699 30.56 82.1599 30.71 83.0799 30.71C84.3299 30.71 85.4099 30.42 86.3299 29.84C87.2499 29.26 88.0899 28.5 88.8699 27.55L91.8999 29.86C89.6799 32.74 86.5599 34.18 82.5599 34.18C80.8999 34.18 79.3899 33.9 78.0399 33.33C76.6899 32.77 75.5499 31.99 74.6099 30.99C73.6799 30 72.9599 28.82 72.4499 27.47C71.9499 26.12 71.6899 24.66 71.6899 23.09C71.6899 21.52 71.9599 20.06 72.5099 18.71C73.0599 17.36 73.8199 16.19 74.7799 15.19C75.7399 14.2 76.8899 13.42 78.2299 12.85C79.5699 12.28 81.0199 12 82.5899 12C84.4599 12 86.0399 12.33 87.3299 12.98C88.6199 13.63 89.6799 14.49 90.5099 15.54C91.3399 16.59 91.9399 17.78 92.3099 19.1C92.6799 20.42 92.8699 21.76 92.8699 23.13V24.55H75.9599V24.56ZM88.5999 21.36C88.5699 20.47 88.4299 19.65 88.1799 18.91C87.9299 18.17 87.5499 17.52 87.0499 16.97C86.5499 16.42 85.9199 15.99 85.1599 15.68C84.3999 15.37 83.5199 15.21 82.5099 15.21C81.4999 15.21 80.6299 15.4 79.8199 15.77C78.9999 16.14 78.3099 16.62 77.7499 17.22C77.1899 17.81 76.7499 18.47 76.4399 19.2C76.1299 19.93 75.9699 20.65 75.9699 21.36H88.6099H88.5999Z" fill="#2B2B2B"/>
<path d="M38.0901 33.6401H33.9901V22.4001C33.9901 22.3001 33.8601 18.0301 36.9101 14.8601C39.0001 12.6901 41.9701 11.5901 45.7501 11.5901V15.6901C43.1501 15.6901 41.1701 16.3601 39.8901 17.6701C38.0401 19.5601 38.0901 22.3001 38.0901 22.3301V33.6401Z" fill="#2B2B2B"/>
<path d="M112.85 34.4401C110.45 34.4401 108.24 34.0201 106.22 33.1701C104.2 32.3201 102.47 31.1601 101.04 29.6801C99.5999 28.2001 98.4699 26.4501 97.6599 24.4301C96.8399 22.4101 96.4399 20.2301 96.4399 17.8901C96.4399 15.5501 96.8499 13.3701 97.6599 11.3501C98.4799 9.33009 99.5999 7.58009 101.04 6.10009C102.48 4.62009 104.21 3.45009 106.22 2.61009C108.24 1.76009 110.45 1.34009 112.85 1.34009C115.25 1.34009 117.46 1.76009 119.48 2.61009C121.5 3.45009 123.23 4.62009 124.66 6.10009C126.1 7.58009 127.23 9.33009 128.04 11.3501C128.86 13.3701 129.26 15.5501 129.26 17.8901C129.26 20.2301 128.85 22.4101 128.04 24.4301C127.22 26.4501 126.1 28.2001 124.66 29.6801C123.22 31.1601 121.49 32.3301 119.48 33.1701C117.47 34.0101 115.25 34.4401 112.85 34.4401ZM112.85 30.4401C114.66 30.4401 116.29 30.1101 117.74 29.4401C119.19 28.7701 120.44 27.8801 121.48 26.7501C122.52 25.6201 123.32 24.3001 123.88 22.7701C124.44 21.2401 124.73 19.6201 124.73 17.9001C124.73 16.1801 124.45 14.5601 123.88 13.0301C123.32 11.5001 122.52 10.1801 121.48 9.05009C120.44 7.92009 119.19 7.03009 117.74 6.36009C116.29 5.69009 114.65 5.36009 112.85 5.36009C111.05 5.36009 109.41 5.69009 107.95 6.36009C106.5 7.03009 105.25 7.93009 104.21 9.05009C103.17 10.1801 102.37 11.5101 101.81 13.0301C101.25 14.5601 100.96 16.1801 100.96 17.9001C100.96 19.6201 101.24 21.2501 101.81 22.7701C102.37 24.3001 103.17 25.6301 104.21 26.7501C105.25 27.8801 106.49 28.7801 107.95 29.4401C109.4 30.1101 111.03 30.4401 112.85 30.4401Z" fill="#BFA66A"/>
<path d="M134.08 12.55H138.08V15.58H138.17C138.94 14.45 140 13.58 141.35 12.95C142.7 12.32 144.09 12.02 145.51 12.02C147.14 12.02 148.62 12.3 149.94 12.87C151.26 13.43 152.39 14.22 153.32 15.23C154.25 16.24 154.97 17.42 155.48 18.77C155.98 20.12 156.24 21.57 156.24 23.11C156.24 24.65 155.99 26.14 155.48 27.49C154.98 28.84 154.26 30.01 153.32 31.01C152.39 32 151.26 32.78 149.94 33.35C148.62 33.91 147.14 34.2 145.51 34.2C144 34.2 142.57 33.88 141.24 33.24C139.91 32.6 138.88 31.74 138.17 30.64H138.08V46.21H134.08V12.55ZM145.03 15.75C143.96 15.75 143 15.94 142.14 16.31C141.28 16.68 140.55 17.19 139.96 17.82C139.37 18.46 138.91 19.23 138.58 20.13C138.25 21.04 138.09 22.02 138.09 23.09C138.09 24.16 138.25 25.14 138.58 26.05C138.91 26.96 139.37 27.73 139.96 28.36C140.55 29 141.28 29.5 142.14 29.87C143 30.24 143.96 30.43 145.03 30.43C146.1 30.43 147.06 30.25 147.92 29.87C148.78 29.5 149.51 28.99 150.1 28.36C150.69 27.72 151.15 26.95 151.48 26.05C151.81 25.15 151.97 24.16 151.97 23.09C151.97 22.02 151.81 21.04 151.48 20.13C151.15 19.23 150.69 18.45 150.1 17.82C149.51 17.19 148.78 16.68 147.92 16.31C147.06 15.94 146.09 15.75 145.03 15.75Z" fill="#BFA66A"/>
<path d="M163.98 24.56C163.98 25.48 164.18 26.32 164.58 27.07C164.98 27.82 165.51 28.47 166.16 29.01C166.81 29.55 167.57 29.96 168.43 30.26C169.29 30.56 170.18 30.71 171.1 30.71C172.35 30.71 173.43 30.42 174.35 29.84C175.27 29.26 176.11 28.5 176.89 27.55L179.92 29.86C177.69 32.74 174.58 34.18 170.58 34.18C168.92 34.18 167.41 33.9 166.06 33.33C164.71 32.77 163.57 31.99 162.63 30.99C161.7 30 160.98 28.82 160.47 27.47C159.97 26.12 159.71 24.66 159.71 23.09C159.71 21.52 159.98 20.06 160.53 18.71C161.08 17.36 161.83 16.19 162.8 15.19C163.76 14.2 164.91 13.42 166.25 12.85C167.59 12.29 169.04 12 170.61 12C172.48 12 174.06 12.33 175.35 12.98C176.64 13.63 177.7 14.49 178.53 15.54C179.36 16.59 179.96 17.78 180.33 19.1C180.7 20.42 180.89 21.76 180.89 23.13V24.55H163.98V24.56ZM176.62 21.36C176.59 20.47 176.45 19.65 176.2 18.91C175.95 18.17 175.57 17.52 175.07 16.97C174.57 16.42 173.94 15.99 173.18 15.68C172.42 15.37 171.54 15.21 170.53 15.21C169.52 15.21 168.65 15.4 167.84 15.77C167.02 16.14 166.33 16.62 165.77 17.22C165.21 17.82 164.77 18.47 164.46 19.2C164.15 19.93 163.99 20.65 163.99 21.36H176.63H176.62Z" fill="#BFA66A"/>
<path d="M185.38 12.55H189.38V15.8H189.47C189.97 14.67 190.85 13.76 192.09 13.06C193.34 12.36 194.77 12.01 196.41 12.01C197.42 12.01 198.39 12.17 199.33 12.48C200.27 12.79 201.08 13.27 201.78 13.93C202.48 14.59 203.03 15.42 203.45 16.44C203.87 17.46 204.07 18.67 204.07 20.07V33.64H200.07V21.18C200.07 20.2 199.94 19.36 199.67 18.67C199.4 17.97 199.05 17.41 198.6 16.98C198.15 16.55 197.64 16.24 197.06 16.05C196.48 15.86 195.88 15.76 195.26 15.76C194.43 15.76 193.66 15.89 192.95 16.16C192.24 16.43 191.62 16.85 191.08 17.43C190.55 18.01 190.13 18.74 189.83 19.63C189.53 20.52 189.38 21.57 189.38 22.79V33.65H185.38V12.55Z" fill="#BFA66A"/>
</svg>
